<?xml version="1.0" encoding="UTF-8" standalone="no"?><!-- Generator: Gravit.io --><svg xmlns="http://www.w3.org/2000/svg" xmlns:xlink="http://www.w3.org/1999/xlink" style="isolation:isolate" viewBox="0 0 96 96" width="96pt" height="96pt"><defs><clipPath id="_clipPath_l6VnM2dXpaPNLlQQ4PONrJZ5Aa77cJL2"><rect width="96" height="96"/></clipPath></defs><g clip-path="url(#_clipPath_l6VnM2dXpaPNLlQQ4PONrJZ5Aa77cJL2)"><rect x="0" y="0" width="96" height="96" transform="matrix(1,0,0,1,0,0)" fill="rgb(255,255,255)"/><g><path d=" M 70.78 76 L 75.62 63.2 L 74.62 63.2 C 73.06 67.36 68.82 70.08 64.22 71.28 C 63.38 71.48 59.46 72.52 51.78 72.52 L 27.66 72.52 L 48.02 48.64 C 48.3 48.32 48.38 48.2 48.38 48 C 48.38 47.92 48.38 47.8 48.1 47.4 L 29.46 21.92 L 51.38 21.92 C 56.74 21.92 60.38 22.48 60.74 22.56 C 62.9 22.88 66.38 23.56 69.54 25.56 C 70.54 26.2 73.26 28 74.62 31.24 L 75.62 31.24 L 70.78 20 L 23.5 20 C 22.58 20 22.54 20.04 22.42 20.28 C 22.38 20.4 22.38 21.16 22.38 21.6 L 43.54 50.56 L 22.82 74.84 C 22.42 75.32 22.42 75.52 22.42 75.56 C 22.42 76 22.78 76 23.5 76 L 70.78 76 Z " fill="rgb(0,0,0)"/></g></g></svg>